HIERARCHY
ROOT Hips
{
	OFFSET 0.000000 0.000000 0.000000
	CHANNELS 6 Xposition Yposition Zposition Xrotation Yrotation Zrotation
	JOINT LeftUpLeg_virtual
	{
		OFFSET 0.000000 0.000000 0.000000
		CHANNELS 3 Xrotation Yrotation Zrotation
		JOINT LeftUpLeg
		{
			OFFSET 15.427100 -6.655098 0.678600
			CHANNELS 3 Xrotation Yrotation Zrotation
			JOINT LeftLeg
			{
				OFFSET 4.081073 -39.591068 13.024000
				CHANNELS 3 Xrotation Yrotation Zrotation
				JOINT LeftFoot
				{
					OFFSET -4.081074 -37.707932 -15.979700
					CHANNELS 3 Xrotation Yrotation Zrotation
					JOINT LeftToeBase
					{
						OFFSET 5.346399 -15.068900 20.645000
						CHANNELS 3 Xrotation Yrotation Zrotation
						JOINT LeftToe_End
						{
							OFFSET 2.754700 0.931300 11.300900
							CHANNELS 3 Xrotation Yrotation Zrotation
							End Site
							{
								OFFSET 0 0 0
							}
						}
					}
				}
			}
		}
	}
	JOINT RightUpLeg_virtual
	{
		OFFSET 0.000000 0.000000 0.000000
		CHANNELS 3 Xrotation Yrotation Zrotation
		JOINT RightUpLeg
		{
			OFFSET -15.569500 -6.655098 0.678600
			CHANNELS 3 Xrotation Yrotation Zrotation
			JOINT RightLeg
			{
				OFFSET -4.081825 -39.591045 13.023800
				CHANNELS 3 Xrotation Yrotation Zrotation
				JOINT RightFoot
				{
					OFFSET 4.081824 -37.707954 -15.979600
					CHANNELS 3 Xrotation Yrotation Zrotation
					JOINT RightToeBase
					{
						OFFSET -5.346400 -15.068900 20.645000
						CHANNELS 3 Xrotation Yrotation Zrotation
						JOINT RightToe_End
						{
							OFFSET -2.754700 0.931300 11.300900
							CHANNELS 3 Xrotation Yrotation Zrotation
							End Site
							{
								OFFSET 0 0 0
							}
						}
					}
				}
			}
		}
	}
	JOINT Spine_virtual
	{
		OFFSET 0.000000 0.000000 0.000000
		CHANNELS 3 Xrotation Yrotation Zrotation
		JOINT Spine
		{
			OFFSET -0.279200 12.230698 -2.892100
			CHANNELS 3 Xrotation Yrotation Zrotation
			JOINT Spine1
			{
				OFFSET -0.232667 10.192268 -1.242267
				CHANNELS 3 Xrotation Yrotation Zrotation
				JOINT Spine1_split
				{
					OFFSET -0.232667 10.192268 -1.242267
					CHANNELS 3 Xrotation Yrotation Zrotation
					JOINT Spine2
					{
						OFFSET -0.232667 10.192268 -1.242267
						CHANNELS 3 Xrotation Yrotation Zrotation
						JOINT Neck_virtual
						{
							OFFSET 0.000000 0.000000 0.000000
							CHANNELS 3 Xrotation Yrotation Zrotation
							JOINT Neck
							{
								OFFSET -0.418800 17.814194 8.416900
								CHANNELS 3 Xrotation Yrotation Zrotation
								JOINT Head
								{
									OFFSET 0.000000 7.031097 3.806800
									CHANNELS 3 Xrotation Yrotation Zrotation
									JOINT HeadTop_End
									{
										OFFSET 0.000000 24.646606 12.978600
										CHANNELS 3 Xrotation Yrotation Zrotation
										End Site
										{
											OFFSET 0 0 0
										}
									}
								}
							}
						}
						JOINT LeftShoulder_virtual
						{
							OFFSET 0.000000 0.000000 0.000000
							CHANNELS 3 Xrotation Yrotation Zrotation
							JOINT LeftShoulder
							{
								OFFSET 8.476499 7.247704 -3.868750
								CHANNELS 3 Xrotation Yrotation Zrotation
								JOINT LeftShoulder_split
								{
									OFFSET 8.476499 7.247704 -3.868750
									CHANNELS 3 Xrotation Yrotation Zrotation
									JOINT LeftArm
									{
										OFFSET 9.308998 -2.777710 0.208600
										CHANNELS 3 Xrotation Yrotation Zrotation
										JOINT LeftForeArm
										{
											OFFSET 29.972298 0.000000 0.000000
											CHANNELS 3 Xrotation Yrotation Zrotation
											JOINT LeftHand
											{
												OFFSET 26.026505 0.000000 0.000000
												CHANNELS 3 Xrotation Yrotation Zrotation
												End Site
												{
													OFFSET 0 0 0
												}
											}
										}
									}
								}
							}
						}
						JOINT RightShoulder_virtual
						{
							OFFSET 0.000000 0.000000 0.000000
							CHANNELS 3 Xrotation Yrotation Zrotation
							JOINT RightShoulder
							{
								OFFSET -7.570500 7.247704 -3.868750
								CHANNELS 3 Xrotation Yrotation Zrotation
								JOINT RightShoulder_split
								{
									OFFSET -7.570500 7.247704 -3.868750
									CHANNELS 3 Xrotation Yrotation Zrotation
									JOINT RightArm
									{
										OFFSET -9.308998 -2.777710 0.208500
										CHANNELS 3 Xrotation Yrotation Zrotation
										JOINT RightForeArm
										{
											OFFSET -29.972300 0.000000 0.000000
											CHANNELS 3 Xrotation Yrotation Zrotation
											JOINT RightHand
											{
												OFFSET -26.026505 0.000000 0.000000
												CHANNELS 3 Xrotation Yrotation Zrotation
												End Site
												{
													OFFSET 0 0 0
												}
											}
										}
									}
								}
							}
						}
					}
				}
			}
		}
	}
}
MOTION
Frames: 4
Frame Time: 0.03333333
2.335095 41.219971 -3.701569 0.000000 0.000000 0.000000 179.493861 -8.082535 173.735492 -74.070458 -31.017091 28.812620 103.819811 -10.669105 -4.327428 -18.885611 4.136038 -17.670347 -10.722908 0.126743 0.502554 0.000000 0.000000 0.000000 179.363472 -5.537701 173.982800 -37.331321 13.709955 -41.827997 91.820023 16.318364 4.954068 -32.633008 -11.093963 29.077966 -3.462270 -2.528336 0.525005 0.000000 0.000000 0.000000 -179.961565 -6.349362 171.972675 7.802432 5.206060 -3.293211 7.891116 7.139731 -3.948853 0.605125 -3.217498 0.671977 0.000000 0.000000 0.000000 8.101765 6.602402 -3.838618 -2.676530 23.864324 6.762778 5.753178 33.902143 -24.201420 0.000000 0.000000 0.000000 8.633088 6.947297 -4.087575 0.979322 -13.392923 -10.231105 -3.434761 -1.585275 -3.837977 3.605701 2.473934 -31.646681 36.549654 -41.036241 1.119905 0.000000 0.000000 0.000000 8.162235 6.887724 -4.431198 5.094455 -18.589968 14.051476 1.738306 2.887755 -1.648452 13.220082 -13.162933 60.807658 34.371390 50.012827 -8.524961 0.000000 0.000000 0.000000 
2.330569 41.222580 -3.695866 0.000000 0.000000 0.000000 179.486949 -8.083005 173.738675 -74.072548 -31.014499 28.819577 103.817236 -10.661683 -4.321744 -18.868044 4.133720 -17.646622 -10.715781 0.127912 0.498581 0.000000 0.000000 0.000000 179.357107 -5.548290 173.989985 -37.332168 13.706188 -41.823366 91.807373 16.315819 4.953309 -32.645019 -11.097781 29.078871 -3.462973 -2.524672 0.522478 0.000000 0.000000 0.000000 -179.975771 -6.350710 171.981240 7.795612 5.203478 -3.284804 7.881506 7.137895 -3.939736 0.583667 -3.215413 0.673615 0.000000 0.000000 0.000000 8.100546 6.602730 -3.831106 -2.630530 23.878136 6.737830 5.741839 33.910107 -24.190942 0.000000 0.000000 0.000000 8.631517 6.945157 -4.078416 0.981015 -13.410177 -10.239227 -3.443829 -1.598909 -3.849965 3.572853 2.506561 -31.642863 36.542905 -41.002070 1.107709 0.000000 0.000000 0.000000 8.150982 6.884985 -4.422536 5.098546 -18.586644 14.039072 1.747787 2.867684 -1.649708 13.204721 -13.159153 60.806415 34.358430 49.988064 -8.523291 0.000000 0.000000 0.000000 
2.320936 41.226906 -3.694515 0.000000 0.000000 0.000000 179.465338 -8.098009 173.735697 -74.093469 -30.997478 28.813310 103.807619 -10.647084 -4.318175 -18.841895 4.132091 -17.617011 -10.707960 0.129712 0.495101 0.000000 0.000000 0.000000 179.337121 -5.571317 173.992854 -37.327172 13.697798 -41.827423 91.804156 16.316593 4.954684 -32.658840 -11.100785 29.094980 -3.453750 -2.521732 0.517070 0.000000 0.000000 0.000000 179.999267 -6.365587 171.983781 7.786592 5.195027 -3.274582 7.869242 7.139586 -3.923492 0.584393 -3.205544 0.677669 0.000000 0.000000 0.000000 8.089233 6.607855 -3.816674 -2.541134 23.883604 6.695475 5.770616 33.919706 -24.232669 0.000000 0.000000 0.000000 8.624417 6.946365 -4.062681 0.978281 -13.452998 -10.260764 -3.451210 -1.597950 -3.862160 3.538825 2.561494 -31.645267 36.529235 -40.975254 1.094939 0.000000 0.000000 0.000000 8.133283 6.888085 -4.405198 5.107746 -18.587764 14.002507 1.763639 2.858601 -1.652853 13.169156 -13.123435 60.833920 34.332468 49.896936 -8.514967 0.000000 0.000000 0.000000 
2.309792 41.233418 -3.696957 0.000000 0.000000 0.000000 179.432826 -8.127724 173.725957 -74.137619 -30.965086 28.792362 103.792941 -10.626015 -4.316475 -18.814999 4.131677 -17.584483 -10.683977 0.132416 0.490279 0.000000 0.000000 0.000000 179.306222 -5.603765 173.989452 -37.307378 13.686310 -41.839762 91.809436 16.319803 4.956471 -32.676636 -11.106336 29.127888 -3.438609 -2.519595 0.510383 0.000000 0.000000 0.000000 179.966373 -6.394803 171.976554 7.779068 5.183508 -3.264311 7.858445 7.147028 -3.902214 0.601077 -3.195669 0.677627 0.000000 0.000000 0.000000 8.072309 6.619029 -3.797629 -2.419665 23.878266 6.648554 5.843941 33.936714 -24.330575 0.000000 0.000000 0.000000 8.615753 6.951916 -4.042360 0.971435 -13.517030 -10.293677 -3.456066 -1.585490 -3.866002 3.499900 2.628577 -31.651315 36.510161 -40.962796 1.084302 0.000000 0.000000 0.000000 8.114962 6.898431 -4.381754 5.120962 -18.595074 13.944475 1.780575 2.859240 -1.666334 13.113657 -13.055545 60.890214 34.291638 49.741857 -8.499111 0.000000 0.000000 0.000000 
